{
  "accessors": [
    {
      "bufferView": 0,
      "componentType": 5125,
      "count": 10080,
      "type": "SCALAR"
    },
    {
      "bufferView": 1,
      "componentType": 5126,
      "count": 2206,
      "max": [
        7.01564979553223,
        14.5361852645874,
        10.4897756576538
      ],
      "min": [
        -7.01568126678467,
        -0.185792922973633,
        -8.22943878173828
      ],
      "type": "VEC3"
    },
    {
      "bufferView": 2,
      "componentType": 5126,
      "count": 2206,
      "type": "VEC3"
    },
    {
      "bufferView": 3,
      "componentType": 5126,
      "count": 2206,
      "type": "VEC2"
    },
    {
      "bufferView": 4,
      "componentType": 5125,
      "count": 840,
      "type": "SCALAR"
    },
    {
      "bufferView": 5,
      "componentType": 5126,
      "count": 226,
      "max": [
        2.63804793357849,
        6.98466300964355,
        8.33891582489014
      ],
      "min": [
        -2.63804793357849,
        6.45711421966553,
        7.75901460647583
      ],
      "type": "VEC3"
    },
    {
      "bufferView": 6,
      "componentType": 5126,
      "count": 226,
      "type": "VEC3"
    },
    {
      "bufferView": 7,
      "componentType": 5126,
      "count": 226,
      "type": "VEC2"
    },
    {
      "bufferView": 8,
      "componentType": 5125,
      "count": 1860,
      "type": "SCALAR"
    },
    {
      "bufferView": 9,
      "componentType": 5126,
      "count": 341,
      "max": [
        7.06345844268799,
        26.9446277618408,
        3.92760300636292
      ],
      "min": [
        -7.06345844268799,
        14.1641550064087,
        -10.1993131637573
      ],
      "type": "VEC3"
    },
    {
      "bufferView": 10,
      "componentType": 5126,
      "count": 341,
      "type": "VEC3"
    },
    {
      "bufferView": 11,
      "componentType": 5126,
      "count": 341,
      "type": "VEC2"
    }
  ],
  "asset": {
    "generator": "Adobe Substance 3D Painter 7.2.0",
    "version": "2.0"
  },
  "bufferViews": [
    {
      "buffer": 0,
      "byteLength": 40320,
      "target": 34963
    },
    {
      "buffer": 0,
      "byteLength": 26472,
      "byteOffset": 40320,
      "target": 34962
    },
    {
      "buffer": 0,
      "byteLength": 26472,
      "byteOffset": 66792,
      "target": 34962
    },
    {
      "buffer": 0,
      "byteLength": 17648,
      "byteOffset": 93264,
      "target": 34962
    },
    {
      "buffer": 0,
      "byteLength": 3360,
      "byteOffset": 110912,
      "target": 34963
    },
    {
      "buffer": 0,
      "byteLength": 2712,
      "byteOffset": 114272,
      "target": 34962
    },
    {
      "buffer": 0,
      "byteLength": 2712,
      "byteOffset": 116984,
      "target": 34962
    },
    {
      "buffer": 0,
      "byteLength": 1808,
      "byteOffset": 119696,
      "target": 34962
    },
    {
      "buffer": 0,
      "byteLength": 7440,
      "byteOffset": 121504,
      "target": 34963
    },
    {
      "buffer": 0,
      "byteLength": 4092,
      "byteOffset": 128944,
      "target": 34962
    },
    {
      "buffer": 0,
      "byteLength": 4092,
      "byteOffset": 133036,
      "target": 34962
    },
    {
      "buffer": 0,
      "byteLength": 2728,
      "byteOffset": 137128,
      "target": 34962
    }
  ],
  "buffers": [
    {
      "byteLength": 139856,
      "uri": "Untitled.bin"
    }
  ],
  "images": [
    {
      "uri": "Brass Color Wall Sconce Art Deco Lamp_baseColor.png"
    },
    {
      "uri": "Brass Color Wall Sconce Art Deco Lamp_occlusionRoughnessMetallic.png"
    },
    {
      "uri": "Brass Color Wall Sconce Art Deco Lamp_normal.png"
    }
  ],
  "materials": [
    {
      "alphaMode": "OPAQUE",
      "name": "Brass Color Wall Sconce Art Deco Lamp",
      "normalTexture": {
        "index": 2
      },
      "occlusionTexture": {
        "index": 1
      },
      "pbrMetallicRoughness": {
        "baseColorTexture": {
          "index": 0
        },
        "metallicRoughnessTexture": {
          "index": 1
        }
      }
    }
  ],
  "meshes": [
    {
      "name": "polySurface2 Brass_Color_Wall_Sconce_Art_Deco_Lamp",
      "primitives": [
        {
          "attributes": {
            "NORMAL": 2,
            "POSITION": 1,
            "TEXCOORD_0": 3
          },
          "indices": 0,
          "material": 0,
          "mode": 4
        }
      ]
    },
    {
      "name": "Brass_Color_Wall_Sconce_Art_Deco_Lamp pCylinder2",
      "primitives": [
        {
          "attributes": {
            "NORMAL": 6,
            "POSITION": 5,
            "TEXCOORD_0": 7
          },
          "indices": 4,
          "material": 0,
          "mode": 4
        }
      ]
    },
    {
      "name": "Brass_Color_Wall_Sconce_Art_Deco_Lamp polySurface1",
      "primitives": [
        {
          "attributes": {
            "NORMAL": 10,
            "POSITION": 9,
            "TEXCOORD_0": 11
          },
          "indices": 8,
          "material": 0,
          "mode": 4
        }
      ]
    }
  ],
  "nodes": [
    {
      "children": [
        1,
        3,
        5
      ],
      "name": "Brass%20Color%20Wall%20Sconce%20Art%20Deco%20Lamp.obj"
    },
    {
      "children": [
        2
      ],
      "name": "polySurface2 Brass_Color_Wall_Sconce_Art_Deco_Lamp"
    },
    {
      "mesh": 0,
      "name": "polySurface2 Brass_Color_Wall_Sconce_Art_Deco_Lamp"
    },
    {
      "children": [
        4
      ],
      "name": "Brass_Color_Wall_Sconce_Art_Deco_Lamp pCylinder2"
    },
    {
      "mesh": 1,
      "name": "Brass_Color_Wall_Sconce_Art_Deco_Lamp pCylinder2"
    },
    {
      "children": [
        6
      ],
      "name": "Brass_Color_Wall_Sconce_Art_Deco_Lamp polySurface1"
    },
    {
      "mesh": 2,
      "name": "Brass_Color_Wall_Sconce_Art_Deco_Lamp polySurface1"
    }
  ],
  "samplers": [
    {
      "magFilter": 9729,
      "minFilter": 9985,
      "wrapS": 10497,
      "wrapT": 10497
    }
  ],
  "scene": 0,
  "scenes": [
    {
      "name": "Scene",
      "nodes": [
        0
      ]
    }
  ],
  "textures": [
    {
      "sampler": 0,
      "source": 0
    },
    {
      "sampler": 0,
      "source": 1
    },
    {
      "sampler": 0,
      "source": 2
    }
  ]
}